Format : AVI
Format/Info : Audio Video Interleave
File size : 700 MiB
Duration : 1h 43mn
Overall bit rate : 945 Kbps
Writing application : VirtualDubMod 1.5.4.1 (build 2178/release)
Writing library : VirtualDubMod build 2178/release

Video
ID : 0
Format : MPEG-4 Visual
Format settings, BVOP : Yes
Format settings, QPel : No
Format settings, GMC : No warppoints
Format settings, Matrix : Default (H.263)
Muxing mode : Packed bitstream
Codec ID : DX50
Codec ID/Hint : DivX 5
Duration : 1h 43mn
Bit rate : 810 Kbps
Width : 720 pixels
Height : 400 pixels
Display aspect ratio : 16:9
Frame rate : 25.000 fps
Resolution : 24 bits
Colorimetry : 4:2:0
Scan type : Progressive
Bits/(Pixel*Frame) : 0.112
Stream size : 600 MiB (86%)
Writing library : DivX 6.8.4

Audio
ID : 1
Format : MPEG Audio
Format version : Version 1
Format profile : Layer 3
Codec ID : 55
Codec ID/Hint : MP3
Duration : 1h 43mn
Bit rate mode : Constant
Bit rate : 128 Kbps
Channel(s) : 2 channels
Sampling rate : 48.0 KHz
Resolution : 16 bits
Stream size : 94.9 MiB (14%)
Alignment : Aligned on interleaves
Interleave, duration : 80 ms (2.00 video frames)
Interleave, preload duration : 504 ms
Writing library : LAME3.98r
Encoding settings : -m j -V 4 -q 2 -lowpass 17 -b 128
Language : English

STARRING
# Kevin Spacey
# Kelly Preston
# Jon Lovitz
# Barry Pepper
# Maury Chaykin
# Rachelle Lefevre
# Yannick Bisson

Two-time Academy Award Winner Kevin Spacey gives the performance of a lifetime in CASINO JACK, a riotous new film starring Spacey as a man hell bent on acquiring all that the good life has to offer. He plays in the same game as the highest of rollers and resorts to awe-inspiring levels of conning, scheming and fraudulent antics to get what he wants. Inspired by true events that are too over-the-top for even the wildest imaginations to conjure, CASINO JACK lays bare the wild excesses and escapades of Jack Abramoff. Aided by his business partner Michael Scanlon (Barry Pepper), Jack parlays his clout over some of the world's most powerful men with the goal of creating a personal empire of wealth and influence. When the two enlist a mob-connected buddy (Jon Lovitz) to help with one of their illegal schemes,
 
http://www.imdb.com/title/tt1194417/news

screens 
http://img822.imageshack.us/img822/7572/casinojackdivxavisnapsh.jpg 
http://img716.imageshack.us/img716/7572/casinojackdivxavisnapsh.jpg 
http://img201.imageshack.us/img201/7572/casinojackdivxavisnapsh.jpg 
http://img831.imageshack.us/img831/7572/casinojackdivxavisnapsh.jpg